<?xml version="1.0" standalone="no"?><!DOCTYPE svg PUBLIC "-//W3C//DTD SVG 1.1//EN" "http://www.w3.org/Graphics/SVG/1.1/DTD/svg11.dtd"><svg t="1511865265454" class="icon" style="" viewBox="0 0 1024 1024" version="1.1" xmlns="http://www.w3.org/2000/svg" p-id="2164" xmlns:xlink="http://www.w3.org/1999/xlink" width="18" height="18"><defs><style type="text/css"></style></defs><path d="M512 128C299.52 128 128 299.52 128 512 128 724.48 299.52 896 512 896 724.48 896 896 724.48 896 512 896 299.52 724.48 128 512 128L512 128 512 128ZM572.586666 725.333334C572.586666 744.106666 556.373334 760.32 537.6 760.32L484.693334 760.32C465.92 760.32 449.706666 744.106666 449.706666 725.333334L449.706666 501.76C449.706666 482.133334 465.92 466.773334 484.693334 466.773334L537.6 466.773334C556.373334 466.773334 572.586666 482.986666 572.586666 501.76L572.586666 725.333334 572.586666 725.333334ZM511.146666 408.746666C471.893334 408.746666 439.466666 376.32 439.466666 336.213334 439.466666 296.106667 471.893334 263.68 511.146666 263.68 551.253334 263.68 583.68 296.106667 583.68 336.213334 583.68 376.32 551.253334 408.746666 511.146666 408.746666L511.146666 408.746666Z" p-id="2165" fill="#ffffff"></path></svg>