<?xml version="1.0" standalone="no"?><!DOCTYPE svg PUBLIC "-//W3C//DTD SVG 1.1//EN" "http://www.w3.org/Graphics/SVG/1.1/DTD/svg11.dtd"><svg t="1511838394813" class="icon" style="" viewBox="0 0 1024 1024" version="1.1" xmlns="http://www.w3.org/2000/svg" p-id="3212" xmlns:xlink="http://www.w3.org/1999/xlink" width="128" height="128"><defs><style type="text/css"></style></defs><path d="M389.896 296.754c-19.234 0-38.466 19.234-38.466 43.275l0 336.588c0 24.043 19.234 43.275 43.275 43.275s43.275-19.234 43.275-43.275l0-336.588c-4.809-24.043-24.043-43.275-48.083-43.275l0 0zM976.519 315.986c-24.043-57.701-62.509-115.401-105.784-158.676-48.083-48.083-100.975-81.743-158.676-105.784-67.318-28.851-134.635-43.275-201.953-43.275s-129.827 14.426-192.336 38.466c-62.509 24.043-115.401 62.509-158.676 110.593-48.083 48.083-81.743 100.975-105.784 158.676-28.851 62.509-43.275 125.018-43.275 192.336s14.426 134.635 38.466 197.144c24.043 57.701 62.509 115.401 105.784 158.676 48.083 48.083 100.975 81.743 158.676 105.784 62.509 24.043 129.827 38.466 197.144 38.466s134.635-14.426 197.144-38.466c57.701-24.043 115.401-62.509 158.676-105.784 48.083-48.083 81.743-100.975 105.784-158.676 24.043-62.509 38.466-129.827 38.466-197.144 4.809-67.318-9.617-129.827-33.658-192.336l0 0zM678.399 907.419c-52.892 24.043-110.593 33.658-168.293 33.658s-115.401-9.617-168.293-33.658c-52.892-24.043-96.167-52.892-139.444-91.36-33.658-38.466-67.318-86.552-86.552-139.444-24.043-52.892-33.658-110.593-33.658-168.293s9.617-115.401 33.658-168.293c24.043-52.892 52.892-96.167 91.36-139.444 38.466-38.466 86.552-72.126 139.444-91.36 52.892-24.043 110.593-33.658 168.293-33.658s115.401 9.617 168.293 33.658c52.892 24.043 96.167 52.892 139.444 91.36 38.466 38.466 72.126 86.552 91.36 139.444 24.043 52.892 33.658 110.593 33.658 168.293s-9.617 115.401-33.658 168.293c-24.043 52.892-52.892 96.167-91.36 139.444-43.275 38.466-91.36 72.126-144.252 91.36l0 0zM630.315 296.754c-24.043 0-43.275 19.234-43.275 43.275l0 336.588c0 24.043 19.234 43.275 43.275 43.275s43.275-19.234 43.275-43.275l0-336.588c0-24.043-19.234-43.275-43.275-43.275l0 0z" p-id="3213" fill="#ffffff"></path></svg>