<?xml version="1.0" standalone="no"?><!DOCTYPE svg PUBLIC "-//W3C//DTD SVG 1.1//EN" "http://www.w3.org/Graphics/SVG/1.1/DTD/svg11.dtd"><svg t="1511837342129" class="icon" style="" viewBox="0 0 1024 1024" version="1.1" xmlns="http://www.w3.org/2000/svg" p-id="2435" xmlns:xlink="http://www.w3.org/1999/xlink" width="128" height="128"><defs><style type="text/css"></style></defs><path d="M512 85.333333c-235.641667 0-426.666667 191.016667-426.666667 426.666667 0 235.625 191.016667 426.666667 426.666667 426.666667 235.625 0 426.666667-191.041667 426.666667-426.666667C938.666667 276.35 747.625 85.333333 512 85.333333zM512 899.875c-214.225 0-387.891667-173.666667-387.891667-387.875 0-214.225 173.666667-387.891667 387.891667-387.891667 214.208333 0 387.875 173.666667 387.875 387.891667C899.875 726.208333 726.208333 899.875 512 899.875zM395.625 705.916667 726.333333 512 395.625 318.041667 395.625 705.916667z" p-id="2436" fill="#ffffff"></path></svg>