<?xml version="1.0" standalone="no"?><!DOCTYPE svg PUBLIC "-//W3C//DTD SVG 1.1//EN" "http://www.w3.org/Graphics/SVG/1.1/DTD/svg11.dtd"><svg t="1511861844051" class="icon" style="" viewBox="0 0 1024 1024" version="1.1" xmlns="http://www.w3.org/2000/svg" p-id="1005" xmlns:xlink="http://www.w3.org/1999/xlink" width="18" height="18"><defs><style type="text/css"></style></defs><path d="M477.491436 65.892824c23.233235 0 46.468517 0 69.703799 0 22.68881 4.33391 45.311102 9.091488 68.104294 12.789894 9.103769 1.479772 12.471631 5.777864 13.644396 14.474337 3.331021 24.703797 6.663066 49.456714 11.63248 73.856574 1.306825 6.413368 7.431606 13.420281 13.272918 17.065473 25.00057 15.604121 51.170834 29.360063 75.942172 45.300868 8.491802 5.464717 14.891866 6.035749 23.62211 2.523594 22.573171-9.082278 45.538287-17.192369 68.080757-26.337072 8.191959-3.322835 13.243241-2.02829 19.311738 4.647056 46.024381 50.65097 79.144251 108.531945 97.984222 174.287639 1.527869 5.332704-1.547313 14.74655-5.802424 18.499194-18.697724 16.484207-39.027701 31.112047-57.78785 47.523596-4.597935 4.021786-7.552362 12.180998-7.772383 18.563665-1.062243 30.626977-1.306825 61.297958-0.882132 91.943356 0.081868 5.862802 2.893025 13.456099 7.138926 17.201579 19.145954 16.864895 39.626363 32.219318 58.720126 49.143568 3.821209 3.390376 6.419508 12.050008 4.976577 16.91504-19.464218 65.605261-53.28611 123.055403-99.831378 173.229489-6.585291 7.094922-11.861711 8.682146-20.859051 4.805676-22.342916-9.608283-44.934507-18.79392-67.947721-26.614401-6.272145-2.132672-15.470062-0.834035-21.488414 2.35167-26.047462 13.783572-50.995841 29.677303-77.248997 43.02595-9.64717 4.905965-13.759012 10.629591-15.197849 20.564324-3.324881 22.951812-7.988311 45.727608-10.698156 68.737751-1.354922 11.509677-6.630319 15.762741-17.324382 17.396017-18.789826 2.864371-37.413869 6.821686-56.106477 10.321561-25.559322 0-51.116597 0-76.674895 0-19.865373-3.703523-39.694928-7.629114-59.610445-11.024606-11.425762-1.950515-17.923044-6.38983-19.005754-19.619768-1.84511-22.489256-5.269256-44.950881-9.780206-67.067635-1.472608-7.211585-6.935279-15.617425-13.082574-19.511292-25.852001-16.379825-52.475612-31.587908-79.265007-46.407116-5.181248-2.864371-13.162396-4.36154-18.526824-2.555318-23.582199 7.943284-46.822598 16.979511-69.875722 26.373912-8.741501 3.5623-14.122303 2.664817-20.802766-4.743252-44.995909-49.87015-77.51507-106.59371-97.575903-170.729432-3.300321-10.55591-2.061038-16.770746 6.893321-23.428696 19.546086-14.527552 38.727857-29.627159 57.059221-45.640622 4.538581-3.962432 7.179861-12.236259 7.404999-18.640417 1.039729-30.032408 1.364133-60.108819 0.885202-90.154531-0.102336-6.417461-2.861301-14.729153-7.409092-18.799037-18.575945-16.61622-37.997182-32.34212-57.795013-47.501082-7.860392-6.023469-8.939008-11.570055-6.018352-20.573535 20.914312-64.434542 54.075117-121.512183 100.192623-171.21962 6.589385-7.102086 11.82794-8.614605 20.741365-4.820003 22.910878 9.748482 46.048941 19.080459 69.578949 27.168036 5.716463 1.965866 14.230779 0.258909 19.861279-2.753849 26.496715-14.156074 52.706891-28.911834 78.366501-44.520048 5.916017-3.599141 11.920042-10.855753 13.311806-17.401133 4.935643-23.205604 8.475428-46.76529 11.34901-70.334185 1.368226-11.237464 6.51468-15.917268 17.187252-17.583291C437.964338 73.522961 457.698722 69.519595 477.491436 65.892824zM511.705274 696.714606c101.708212 0.313147 184.719723-81.350605 185.348063-182.334281 0.63755-102.699843-80.987314-186.165724-182.71804-186.841138-102.155418-0.676438-185.813689 81.581883-186.453286 183.33717C327.242413 612.858827 409.877329 696.397366 511.705274 696.714606z" p-id="1006" fill="#ffffff"></path></svg>